<svg width="24" height="24" viewBox="0 0 24 24" fill="none" xmlns="http://www.w3.org/2000/svg">
<path d="M7.70005 14.05C7.5516 14.05 7.40648 14.006 7.28305 13.9236C7.15962 13.8411 7.06343 13.7239 7.00668 13.5867C6.94993 13.4495 6.93516 13.2986 6.96424 13.153C6.99332 13.0075 7.06495 12.8738 7.17005 12.769L11.936 8.00197C12.0057 7.9323 12.0884 7.87704 12.1794 7.83933C12.2705 7.80163 12.368 7.78223 12.4665 7.78223C12.5651 7.78223 12.6626 7.80163 12.7537 7.83933C12.8447 7.87704 12.9274 7.9323 12.997 8.00197C13.0667 8.07163 13.122 8.15434 13.1597 8.24536C13.1974 8.33639 13.2168 8.43394 13.2168 8.53247C13.2168 8.63099 13.1974 8.72855 13.1597 8.81957C13.122 8.91059 13.0667 8.9933 12.997 9.06297L8.23005 13.831C8.16049 13.9006 8.07786 13.9558 7.9869 13.9934C7.89595 14.0309 7.79846 14.0502 7.70005 14.05ZM9.90005 16.15C9.7516 16.15 9.60647 16.106 9.48304 16.0236C9.35961 15.9411 9.26343 15.8239 9.20668 15.6867C9.14993 15.5495 9.13516 15.3986 9.16424 15.253C9.19332 15.1075 9.26495 14.9738 9.37005 14.869L11.957 12.282C12.0977 12.1413 12.2886 12.0622 12.4875 12.0622C12.6865 12.0622 12.8773 12.1413 13.018 12.282C13.1587 12.4227 13.2378 12.6135 13.2378 12.8125C13.2378 13.0114 13.1587 13.2023 13.018 13.343L10.43 15.93C10.3607 15.9999 10.2781 16.0554 10.1871 16.0931C10.0961 16.1309 9.99855 16.1502 9.90005 16.15Z" fill="#0F1015"/>
<path d="M17.9 4.5C18.769 4.5 19.4 5.131 19.4 6V10.693C19.392 10.859 19.242 11.228 19.139 11.339L11.239 19.239C11.196 19.287 11.1439 19.3259 11.0857 19.3535C11.0275 19.3812 10.9644 19.397 10.9 19.4C10.8356 19.397 10.7725 19.3812 10.7143 19.3535C10.6561 19.3259 10.604 19.287 10.561 19.239L4.626 13.304L4.588 13.271C4.52 13.211 4.503 13.119 4.5 13.053C4.49859 12.9802 4.51206 12.9079 4.53957 12.8405C4.56708 12.7731 4.60806 12.712 4.66 12.661L12.558 4.763C12.671 4.658 13.041 4.508 13.2 4.5H17.9ZM17.9 3H13.2C12.7 3 11.9 3.3 11.5 3.7L3.6 11.6C2.8 12.4 2.8 13.7 3.6 14.4L9.5 20.3C9.9 20.7 10.4 20.9 10.9 20.9C11.4 20.9 11.9 20.7 12.3 20.3L20.2 12.4C20.6 12 20.9 11.2 20.9 10.7V6C20.9 4.3 19.6 3 17.9 3Z" fill="#0F1015"/>
<path d="M18 7C18 7.6 17.6 8 17 8C16.4 8 16 7.6 16 7C16 6.4 16.4 6 17 6C17.6 6 18 6.5 18 7Z" fill="#0F1015"/>
</svg>
